<?xml version="1.0" encoding="windows-1252" standalone="no"?>
<svg xmlns="http://www.w3.org/2000/svg" xmlns:xlink="http://www.w3.org/1999/xlink" contentStyleType="text/css" height="566px" preserveAspectRatio="none" style="width:652px;height:566px;background:#FFFFFF;" version="1.1" viewBox="0 0 652 566" width="652px" zoomAndPan="magnify"><defs/><g><line style="stroke:#181818;stroke-width:0.5;stroke-dasharray:5.0,5.0;" x1="49" x2="49" y1="83.5938" y2="471.7188"/><line style="stroke:#181818;stroke-width:0.5;stroke-dasharray:5.0,5.0;" x1="180" x2="180" y1="83.5938" y2="471.7188"/><line style="stroke:#181818;stroke-width:0.5;stroke-dasharray:5.0,5.0;" x1="338.5" x2="338.5" y1="83.5938" y2="471.7188"/><line style="stroke:#181818;stroke-width:0.5;stroke-dasharray:5.0,5.0;" x1="424.5" x2="424.5" y1="83.5938" y2="471.7188"/><line style="stroke:#181818;stroke-width:0.5;stroke-dasharray:5.0,5.0;" x1="507.5" x2="507.5" y1="83.5938" y2="471.7188"/><line style="stroke:#181818;stroke-width:0.5;stroke-dasharray:5.0,5.0;" x1="615.5" x2="615.5" y1="83.5938" y2="471.7188"/><rect fill="#E2E2F0" height="46.5938" rx="2.5" ry="2.5" style="stroke:#181818;stroke-width:0.5;" width="89" x="5" y="36"/><text fill="#000000" font-family="sans-serif" font-size="14" lengthAdjust="spacing" textLength="75" x="12" y="55.9951">IoT Device</text><text fill="#000000" font-family="sans-serif" font-size="14" lengthAdjust="spacing" textLength="30" x="34.5" y="72.292">APIs</text><rect fill="#E2E2F0" height="46.5938" rx="2.5" ry="2.5" style="stroke:#181818;stroke-width:0.5;" width="89" x="5" y="470.7188"/><text fill="#000000" font-family="sans-serif" font-size="14" lengthAdjust="spacing" textLength="75" x="12" y="490.7139">IoT Device</text><text fill="#000000" font-family="sans-serif" font-size="14" lengthAdjust="spacing" textLength="30" x="34.5" y="507.0107">APIs</text><rect fill="#ADD8E6" height="46.5938" rx="2.5" ry="2.5" style="stroke:#181818;stroke-width:0.5;" width="89" x="136" y="36"/><text fill="#000000" font-family="sans-serif" font-size="14" lengthAdjust="spacing" textLength="75" x="143" y="55.9951">IoT Device</text><text fill="#000000" font-family="sans-serif" font-size="14" lengthAdjust="spacing" textLength="30" x="165.5" y="72.292">App</text><rect fill="#ADD8E6" height="46.5938" rx="2.5" ry="2.5" style="stroke:#181818;stroke-width:0.5;" width="89" x="136" y="470.7188"/><text fill="#000000" font-family="sans-serif" font-size="14" lengthAdjust="spacing" textLength="75" x="143" y="490.7139">IoT Device</text><text fill="#000000" font-family="sans-serif" font-size="14" lengthAdjust="spacing" textLength="30" x="165.5" y="507.0107">App</text><rect fill="#E2E2F0" height="46.5938" rx="2.5" ry="2.5" style="stroke:#181818;stroke-width:0.5;" width="82" x="297.5" y="36"/><text fill="#000000" font-family="sans-serif" font-size="14" lengthAdjust="spacing" textLength="68" x="304.5" y="55.9951">GCP Auth</text><text fill="#000000" font-family="sans-serif" font-size="14" lengthAdjust="spacing" textLength="47" x="315" y="72.292">Server</text><rect fill="#E2E2F0" height="46.5938" rx="2.5" ry="2.5" style="stroke:#181818;stroke-width:0.5;" width="82" x="297.5" y="470.7188"/><text fill="#000000" font-family="sans-serif" font-size="14" lengthAdjust="spacing" textLength="68" x="304.5" y="490.7139">GCP Auth</text><text fill="#000000" font-family="sans-serif" font-size="14" lengthAdjust="spacing" textLength="47" x="315" y="507.0107">Server</text><rect fill="#E2E2F0" height="46.5938" rx="2.5" ry="2.5" style="stroke:#181818;stroke-width:0.5;" width="71" x="389.5" y="36"/><text fill="#000000" font-family="sans-serif" font-size="14" lengthAdjust="spacing" textLength="57" x="396.5" y="55.9951">GCP API</text><text fill="#000000" font-family="sans-serif" font-size="14" lengthAdjust="spacing" textLength="52" x="399" y="72.292">servers</text><rect fill="#E2E2F0" height="46.5938" rx="2.5" ry="2.5" style="stroke:#181818;stroke-width:0.5;" width="71" x="389.5" y="470.7188"/><text fill="#000000" font-family="sans-serif" font-size="14" lengthAdjust="spacing" textLength="57" x="396.5" y="490.7139">GCP API</text><text fill="#000000" font-family="sans-serif" font-size="14" lengthAdjust="spacing" textLength="52" x="399" y="507.0107">servers</text><rect fill="#E2E2F0" height="46.5938" rx="2.5" ry="2.5" style="stroke:#181818;stroke-width:0.5;" width="73" x="471.5" y="36"/><text fill="#000000" font-family="sans-serif" font-size="14" lengthAdjust="spacing" textLength="30" x="493" y="55.9951">GCP</text><text fill="#000000" font-family="sans-serif" font-size="14" lengthAdjust="spacing" textLength="59" x="478.5" y="72.292">Pub/Sub</text><rect fill="#E2E2F0" height="46.5938" rx="2.5" ry="2.5" style="stroke:#181818;stroke-width:0.5;" width="73" x="471.5" y="470.7188"/><text fill="#000000" font-family="sans-serif" font-size="14" lengthAdjust="spacing" textLength="30" x="493" y="490.7139">GCP</text><text fill="#000000" font-family="sans-serif" font-size="14" lengthAdjust="spacing" textLength="59" x="478.5" y="507.0107">Pub/Sub</text><text fill="#000000" font-family="sans-serif" font-size="14" lengthAdjust="spacing" textLength="30" x="598" y="63.9951">GCP</text><text fill="#000000" font-family="sans-serif" font-size="14" lengthAdjust="spacing" textLength="65" x="580.5" y="80.292">BigQuery</text><path d="M598,15 C598,5 616,5 616,5 C616,5 634,5 634,15 L634,41 C634,51 616,51 616,51 C616,51 598,51 598,41 L598,15 " fill="#E2E2F0" style="stroke:#181818;stroke-width:1.5;"/><path d="M598,15 C598,25 616,25 616,25 C616,25 634,25 634,15 " fill="none" style="stroke:#181818;stroke-width:1.5;"/><text fill="#000000" font-family="sans-serif" font-size="14" lengthAdjust="spacing" textLength="30" x="598" y="483.7139">GCP</text><text fill="#000000" font-family="sans-serif" font-size="14" lengthAdjust="spacing" textLength="65" x="580.5" y="500.0107">BigQuery</text><path d="M598,513.3125 C598,503.3125 616,503.3125 616,503.3125 C616,503.3125 634,503.3125 634,513.3125 L634,539.3125 C634,549.3125 616,549.3125 616,549.3125 C616,549.3125 598,549.3125 598,539.3125 L598,513.3125 " fill="#E2E2F0" style="stroke:#181818;stroke-width:1.5;"/><path d="M598,513.3125 C598,523.3125 616,523.3125 616,523.3125 C616,523.3125 634,523.3125 634,513.3125 " fill="none" style="stroke:#181818;stroke-width:1.5;"/><polygon fill="#181818" points="168.5,110.7266,178.5,114.7266,168.5,118.7266,172.5,114.7266" style="stroke:#181818;stroke-width:1.0;"/><line style="stroke:#181818;stroke-width:1.0;" x1="0" x2="174.5" y1="114.7266" y2="114.7266"/><text fill="#000000" font-family="sans-serif" font-size="13" lengthAdjust="spacing" textLength="128" x="7" y="109.6606">create and sing JWT</text><polygon fill="#181818" points="326.5,154.9922,336.5,158.9922,326.5,162.9922,330.5,158.9922" style="stroke:#181818;stroke-width:1.0;"/><line style="stroke:#181818;stroke-width:1.0;" x1="180.5" x2="332.5" y1="158.9922" y2="158.9922"/><text fill="#000000" font-family="sans-serif" font-size="13" lengthAdjust="spacing" textLength="117" x="187.5" y="138.7935">use JWT to reques</text><text fill="#000000" font-family="sans-serif" font-size="13" lengthAdjust="spacing" textLength="93" x="187.5" y="153.9263">tOAuth2 token</text><polygon fill="#181818" points="191.5,199.2578,181.5,203.2578,191.5,207.2578,187.5,203.2578" style="stroke:#181818;stroke-width:1.0;"/><line style="stroke:#181818;stroke-width:1.0;stroke-dasharray:2.0,2.0;" x1="185.5" x2="337.5" y1="203.2578" y2="203.2578"/><text fill="#000000" font-family="sans-serif" font-size="13" lengthAdjust="spacing" textLength="134" x="197.5" y="183.0591">on success response</text><text fill="#000000" font-family="sans-serif" font-size="13" lengthAdjust="spacing" textLength="119" x="197.5" y="198.1919">with OAuth2 token</text><polygon fill="#181818" points="60.5,213.2578,50.5,217.2578,60.5,221.2578,56.5,217.2578" style="stroke:#181818;stroke-width:1.0;"/><line style="stroke:#181818;stroke-width:1.0;" x1="54.5" x2="179.5" y1="217.2578" y2="217.2578"/><polygon fill="#181818" points="168.5,257.5234,178.5,261.5234,168.5,265.5234,172.5,261.5234" style="stroke:#181818;stroke-width:1.0;"/><line style="stroke:#181818;stroke-width:1.0;" x1="49.5" x2="174.5" y1="261.5234" y2="261.5234"/><text fill="#000000" font-family="sans-serif" font-size="13" lengthAdjust="spacing" textLength="70" x="56.5" y="241.3247">obtain KPIs</text><text fill="#000000" font-family="sans-serif" font-size="13" lengthAdjust="spacing" textLength="107" x="56.5" y="256.4575">from system API</text><polygon fill="#181818" points="413,316.9219,423,320.9219,413,324.9219,417,320.9219" style="stroke:#181818;stroke-width:1.0;"/><line style="stroke:#181818;stroke-width:1.0;" x1="180.5" x2="419" y1="320.9219" y2="320.9219"/><text fill="#000000" font-family="sans-serif" font-size="13" lengthAdjust="spacing" textLength="115" x="187.5" y="285.5903">use OAuth2 token</text><text fill="#000000" font-family="sans-serif" font-size="13" lengthAdjust="spacing" textLength="162" x="187.5" y="300.7231">to call GCP API (pub/sub),</text><text fill="#000000" font-family="sans-serif" font-size="13" lengthAdjust="spacing" textLength="168" x="187.5" y="315.856">transfering JSON message</text><polygon fill="#181818" points="191.5,346.0547,181.5,350.0547,191.5,354.0547,187.5,350.0547" style="stroke:#181818;stroke-width:1.0;"/><line style="stroke:#181818;stroke-width:1.0;" x1="185.5" x2="424" y1="350.0547" y2="350.0547"/><text fill="#000000" font-family="sans-serif" font-size="13" lengthAdjust="spacing" textLength="170" x="197.5" y="344.9888">response with MessageIDs</text><polygon fill="#181818" points="496,390.3203,506,394.3203,496,398.3203,500,394.3203" style="stroke:#181818;stroke-width:1.0;"/><line style="stroke:#181818;stroke-width:1.0;" x1="425" x2="502" y1="394.3203" y2="394.3203"/><text fill="#000000" font-family="sans-serif" font-size="13" lengthAdjust="spacing" textLength="45" x="432" y="374.1216">publish</text><text fill="#000000" font-family="sans-serif" font-size="13" lengthAdjust="spacing" textLength="59" x="432" y="389.2544">message</text><polygon fill="#181818" points="604,449.7188,614,453.7188,604,457.7188,608,453.7188" style="stroke:#181818;stroke-width:1.0;"/><line style="stroke:#181818;stroke-width:1.0;" x1="508" x2="610" y1="453.7188" y2="453.7188"/><text fill="#000000" font-family="sans-serif" font-size="13" lengthAdjust="spacing" textLength="72" x="515" y="418.3872">check JSON</text><text fill="#000000" font-family="sans-serif" font-size="13" lengthAdjust="spacing" textLength="79" x="515" y="433.52">schema and</text><text fill="#000000" font-family="sans-serif" font-size="13" lengthAdjust="spacing" textLength="84" x="515" y="448.6528">transfer data</text><!--SRC=[VP91JyCm38Nl_HLMkO34XCHnGaY3IQWWMD4cSSabxRmsMfk6E1dQlyVfDjXes37no_Fp5njfdIgLaTf1cdKBcE96bIZq9CyeJSo_PMDIk6XKLRkYyNWgV7hCOU9TBVGSxGPj6YddcT3KLsbO5ZhtnStS5scob4uMad1__w2gTuzscoQZ-qYYCPGMfKEGUWcaT0NF7mj8XiBmUX1p39uRXHUk0ukV7abeDmkQMxvQeuuutOr6KQjE0_coH2As8jFnj49_ALV36SC0dHs7ayLqCGBSjt1IQNXXYT0hsxL0MtBO1kJdG1n_o0x4SKxcq44fcmRsOhWq_4NaYwjhhbcfQOMs1pwVlK7BOyiAexYY_Gw8e2VqkdkUJIaPYaFaFrio1WxJA6B-FvrF18SnZnQ8LwN6SjtdPNC-j3AipUyq47Rl6m00]--></g></svg>